<svg xmlns="http://www.w3.org/2000/svg" viewBox="0 0 64 64" id="axe">
  <defs>
    <linearGradient id="a" x1="31.98" x2="31.98" y1="4.15" y2="63.49" gradientUnits="userSpaceOnUse">
      <stop offset="0" stop-color="#20ff12"></stop>
      <stop offset="1" stop-color="#118009"></stop>
    </linearGradient>
  </defs>
  <path fill="url(#a)" d="M58.05,44.68l-23.77-22.13c.57-.65,1.15-1.29,1.75-1.89.4-.4.4-1.05,0-1.45l-8.53-8.53c-.19-.19-.45-.3-.72-.3s-.53.11-.72.3c-.73.73-1.5,1.42-2.28,2.09l-2.27-2.11c-.43-.4-.98-.61-1.57-.6s-1.14.24-1.55.66l-1.75,1.75c-.42.41-.65.96-.66,1.55-.01.59.2,1.15.6,1.57l1.28,1.38c-3.53,2.04-7.34,3.53-11.34,4.4-.07.02-.14.04-.21.08l-.34.16c-.11.05-.21.12-.29.2-.23.22-.49.62-.48,1.28.01.34.09.73.26,1.17.26.74.76,1.64,1.46,2.68,1.38,2.07,3.48,4.54,5.9,6.96,2.42,2.42,4.89,4.51,6.95,5.9,1.05.7,1.95,1.19,2.68,1.46.45.16.83.24,1.18.25h.05c.62,0,1.01-.25,1.23-.47.08-.08.15-.18.2-.29l.16-.34c.03-.07.06-.14.07-.22.81-3.68,2.14-7.22,3.95-10.53.05-.09.1-.17.15-.26l21.16,22.73c.42.45.99.71,1.61.72h.04c.6,0,1.16-.23,1.59-.66l4.27-4.27c.44-.44.67-1.02.66-1.63-.01-.62-.27-1.19-.72-1.61ZM28.37,27.16c-.3.5-.6,1.01-.87,1.52-1.07,1.95-1.96,3.99-2.71,6.08-.33-.09-1.08-.4-2.47-1.39-1.47-1.05-3.21-2.55-4.87-4.21-1.66-1.67-3.16-3.4-4.21-4.88-.87-1.21-1.21-1.93-1.35-2.32,2.83-1,5.55-2.3,8.12-3.89,1.53-.95,3-2,4.39-3.13.81-.67,1.61-1.37,2.37-2.1l7.11,7.1c-.63.66-1.23,1.33-1.81,2.02-1.36,1.63-2.61,3.38-3.7,5.2ZM56.66,46.47l-4.27,4.27c-.05.06-.11.07-.15.06-.04,0-.1-.01-.14-.06l-21.56-23.16c.39-.62.78-1.25,1.21-1.85.06-.08.12-.16.18-.24.34-.46.7-.91,1.05-1.36l23.68,22.05s.06.1.06.14c.01.04,0,.1-.06.15Z"></path>
</svg>
