<svg xmlns="http://www.w3.org/2000/svg" enable-background="new 0 0 512 512" viewBox="0 0 512 512" id="axe">
  <linearGradient id="a" x1="24.649" x2="418.719" y1="458.305" y2="64.236" gradientUnits="userSpaceOnUse">
    <stop offset="0" stop-color="#ff984c"></stop>
    <stop offset="1" stop-color="#ffd746"></stop>
  </linearGradient>
  <path fill="url(#a)" d="M463.841,147.988c-11.536-13.795-31.675-15.934-45.828-4.868l-7.288,5.681c-7.027-2.423-14.504-3.535-22.088-3.028C368.227,95.1,367.921,36.866,361.73,9.514c-0.998-4.405-4.725-7.662-9.225-8.064c-76.238-6.783-174.627,75.443-181.426,151.73c-0.401,4.502,2.147,8.744,6.306,10.508c8.165,3.46,19.239,6.819,32.064,10.706c27.862,8.45,65.36,19.821,97.297,39.876c-1.383,5.532-1.811,11.169-1.502,16.747L54.785,426.235c-16.662,12.976-19.247,37.158-5.688,53.371l15.02,17.956c13.433,16.055,37.675,18.059,53.536,3.846l236.914-212.434c16.799,3.63,34.602-0.443,48.238-11.843l30.717-25.7c14.777-12.358,22.345-31.221,19.712-50.929l7.297-6.543C473.899,181.97,475.357,161.778,463.841,147.988z M103.764,485.912c-6.788,6.076-17.551,5.63-23.678-1.702c-0.003,0-0.003,0-0.005,0l-15.02-17.956c-5.975-7.138-4.875-17.845,2.518-23.606l243.379-189.698c1.96,3.938,4.395,7.692,7.304,11.171l4.944,5.909c3.145,3.76,6.71,6.949,10.527,9.674L103.764,485.912z M420.172,235.468c-0.003,0-0.003,0-0.003,0l-30.715,25.7c-15.103,12.626-37.656,10.604-50.284-4.492l-4.944-5.909c-8.622-10.309-10.734-24.404-5.51-36.771c1.926-4.558,0.373-9.842-3.709-12.637c-35.887-24.552-78.443-37.457-109.519-46.883c-8.556-2.596-16.3-4.944-22.626-7.154C203.99,86.568,281.125,22.049,342.885,21.856c4.885,30.552,7.015,88.85,29.815,139.606c2.027,4.517,6.964,6.976,11.783,5.889c13.114-2.972,26.597,1.611,35.214,11.91l4.954,5.94C437.31,200.321,435.308,222.808,420.172,235.468z M430.021,160.147l0.796-0.621c5.264-4.119,12.767-3.32,17.054,1.809c4.291,5.137,3.747,12.662-1.235,17.128l-0.849,0.762C442.281,173.364,435.058,164.681,430.021,160.147z"></path>
</svg>
