<svg xmlns="http://www.w3.org/2000/svg" xmlns:xlink="http://www.w3.org/1999/xlink" viewBox="0 0 512 512" id="wood-cutting">
  <defs>
    <linearGradient id="a" x1="19.23" x2="451.18" y1="157.58" y2="157.58" gradientUnits="userSpaceOnUse">
      <stop offset="0" stop-color="#7738c8"></stop>
      <stop offset="1" stop-color="#461d93"></stop>
    </linearGradient>
    <linearGradient xlink:href="#a" id="b" x1="19.23" x2="451.18" y1="434.5" y2="434.5"></linearGradient>
    <linearGradient xlink:href="#a" id="c" x1="19.23" x2="451.18" y1="421.88" y2="421.88"></linearGradient>
    <linearGradient xlink:href="#a" id="d" x1="19.23" x2="451.18" y1="451.88" y2="451.88"></linearGradient>
  </defs>
  <path fill="url(#a)" d="M505.41 276.74 309.19 80.52l5.3-5.3a7.5 7.5 0 0 0 0-10.61l-8.84-8.84 8.84-8.84A27.5 27.5 0 0 0 275.6 8l-8.84 8.84L257.92 8a7.48 7.48 0 0 0-10.6 0l-42.43 42.47a7.48 7.48 0 0 0 0 10.6l2.41 2.41C196.65 75.54 160.88 106.4 82 93a7.49 7.49 0 0 0-8.75 7.19 126.32 126.32 0 0 0 36.8 92.35l20 20a126.38 126.38 0 0 0 89 36.85c1.11 0 2.22 0 3.33-.05a7.49 7.49 0 0 0 7.19-8.75c-6.78-39.85-3-74.79 10.92-101a86.46 86.46 0 0 1 18.59-24.24l2.39 2.39a7.5 7.5 0 0 0 10.61 0l5.3-5.3 196.21 196.12a22.5 22.5 0 0 0 31.82-31.82ZM286.21 18.65a12.5 12.5 0 0 1 17.67 17.68l-8.83 8.83-17.68-17.67ZM140.63 201.87l-20-20a111.34 111.34 0 0 1-32.31-72.79 229.88 229.88 0 0 0 27.82 2.11 126.34 126.34 0 0 0 29.24 45.93l20 20a126.34 126.34 0 0 0 45.93 29.24 228.29 228.29 0 0 0 2.12 27.83 111.33 111.33 0 0 1-72.8-32.32Zm87.15-70.44c-7.09 13-14.23 32.4-16.06 59A111.53 111.53 0 0 1 176 166.52l-20-20a111.28 111.28 0 0 1-23.93-35.74c26.61-1.82 46-9 59-16.06a101.2 101.2 0 0 0 26.81-20.66l30.53 30.54a101.29 101.29 0 0 0-20.63 26.83Zm39-29.7-46-46L252.62 24l46 46ZM494.8 298a7.5 7.5 0 0 1-10.6 0L288 101.73l10.6-10.6 196.2 196.22a7.5 7.5 0 0 1 0 10.61Z"></path>
  <path fill="url(#b)" d="M374.76 366.38a7.5 7.5 0 0 0-7.26-9.38H110.59a7.49 7.49 0 0 0-6.49 3.75L87.5 389.5l-16.6-28.75a7.49 7.49 0 0 0-6.49-3.75H7.5a7.5 7.5 0 0 0-7.26 9.38l3.55 13.72A220 220 0 0 1 .36 502.22 7.49 7.49 0 0 0 7.5 512h360a7.49 7.49 0 0 0 7.14-9.78 220 220 0 0 1-3.43-122.12ZM357.46 497h-94.08v-16.5a7.5 7.5 0 0 0-15 0V497h-97.25v-36.5a7.5 7.5 0 0 0-15 0V497H17.54a235 235 0 0 0 .77-120.65L17.19 372h42.89L80 406.51V441a7.5 7.5 0 0 0 15 0v-34.49L114.92 372h77.33v23.5a7.5 7.5 0 0 0 15 0V372h97.25v53.5a7.5 7.5 0 0 0 15 0V372h38.31l-1.12 4.35a235 235 0 0 0 .77 120.65Z"></path>
  <path fill="url(#c)" d="M199.75 410.25a7.5 7.5 0 0 0-7.5 7.5V426a7.5 7.5 0 0 0 15 0v-8.25a7.5 7.5 0 0 0-7.5-7.5Z"></path>
  <path fill="url(#d)" d="M312 440.25a7.5 7.5 0 0 0-7.5 7.5V456a7.5 7.5 0 0 0 15 0v-8.25a7.5 7.5 0 0 0-7.5-7.5Z"></path>
</svg>
