<svg xmlns="http://www.w3.org/2000/svg" viewBox="0 0 64 64" id="wood">
  <defs>
    <linearGradient id="a" x1="32" x2="32" y1="64" gradientUnits="userSpaceOnUse">
      <stop offset="0" stop-color="#f96"></stop>
      <stop offset="1" stop-color="#f56eb3"></stop>
    </linearGradient>
  </defs>
  <path fill="url(#a)" d="M14.92822,51.61035a14.94015,14.94015,0,0,1-1.144,2.27344l-1.93262,3.14014a.99983.99983,0,0,1-1.70312-1.04786l1.93261-3.14062a12.95867,12.95867,0,0,0,.99073-1.96826.99983.99983,0,0,1,1.85644.74316ZM30,28c8.55127,0,15-3.00928,15-7s-6.44873-7-15-7c-1.04053,0-2.08154.04785-3.09326.14258a1,1,0,1,0,.18652,1.99121C28.043,16.04492,29.021,16,30,16c7.66113,0,13,2.63525,13,5s-5.33887,5-13,5-13-2.63525-13-5c0-.9585.87988-1.96484,2.47754-2.8335a.99983.99983,0,1,0-.95508-1.75683C15.61133,17.99219,15,19.7793,15,21,15,24.99072,21.44873,28,30,28Zm0-4c.70508,0,1.3916-.01758,2.05078-.05127a.99983.99983,0,1,0-.10156-1.99707C31.32227,21.9834,30.66992,22,30,22a22.48046,22.48046,0,0,1-7.61621-1A22.48046,22.48046,0,0,1,30,20a22.55534,22.55534,0,0,1,7.60889.99658,6.66191,6.66191,0,0,1-.874.29639,1.00014,1.00014,0,1,0,.53028,1.92871C37.94141,23.03564,40,22.47021,40,21c0-2.78369-7.6543-3-10-3s-10,.21631-10,3S27.6543,24,30,24ZM20,44a2.002,2.002,0,0,1-2-2V41a1,1,0,0,0-2,0v1a4.00768,4.00768,0,0,0,3,3.87354V49a1,1,0,0,0,2,0V45A1,1,0,0,0,20,44Zm16-5c1.71045,0,3,2.14941,3,5s-1.28955,5-3,5-3-2.14941-3-5S34.28955,39,36,39Zm-1,5c0,1.936.751,3,1,3s1-1.064,1-3-.751-3-1-3S35,42.064,35,44ZM23,34a1,1,0,0,0,0,2c.40771,0,1,.7793,1,2s-.59229,2-1,2-1-.7793-1-2a1,1,0,0,0-2,0c0,2.24316,1.31787,4,3,4s3-1.75684,3-4S24.68213,34,23,34Zm40.707,4.707a.99963.99963,0,0,1-1.41406,0L59.62891,36.043,51,45.391v.66907a12.95543,12.95543,0,0,0,1.92236,6.77685l5.9292,9.63916A.99976.99976,0,0,1,58,64H53.1499a17.00519,17.00519,0,0,1-8.25635-2.13623l-4.86376-2.70313-5.79932,3.627a8.00392,8.00392,0,0,1-4.067,1.17938.4204.4204,0,0,1-.32635.00012A8.0005,8.0005,0,0,1,25.772,62.78955l-5.80176-3.62891L15.106,61.86426A17.00685,17.00685,0,0,1,6.8501,64H2a.99976.99976,0,0,1-.85156-1.52393l5.93017-9.64013a13.026,13.026,0,0,0,1.54523-3.72113L.33545,41.74756a1.00045,1.00045,0,0,1-.23-1.19483l2-4a1.00031,1.00031,0,0,1,1.39062-.42089L9,39.27692V21a6.84655,6.84655,0,0,1,1.53442-4.1886,6.01534,6.01534,0,0,1-3.75171-2.85919.97055.97055,0,0,1-.20214-.0445A7.62139,7.62139,0,0,1,2,7,7.62139,7.62139,0,0,1,6.58057.09229a.99926.99926,0,0,1,.83886,0A7.62139,7.62139,0,0,1,12,7,7.4935,7.4935,0,0,1,8.658,13.187,3.99513,3.99513,0,0,0,12,15a.96671.96671,0,0,1,.25977.05249C15.95142,11.99609,22.44226,10,30,10c11.77588,0,21,4.83154,21,11v9.38184l3-1.5V25a1,1,0,0,1,2,0v2.88184l3.55273-1.77637a1.00086,1.00086,0,0,1,1.376.52295l2,5a1.00088,1.00088,0,0,1-.19385,1.0498l-1.74841,1.89417L63.707,37.293A.99962.99962,0,0,1,63.707,38.707ZM6.0094,11.18622C6.00745,11.12384,6,11.06287,6,11V8A1,1,0,0,1,8,8v3c0,.0564.01434.10883.01666.16461A5.45757,5.45757,0,0,0,10,7,5.58926,5.58926,0,0,0,7,2.12012,5.58926,5.58926,0,0,0,4,7,5.46043,5.46043,0,0,0,6.0094,11.18622ZM30,12c-10.29883,0-19,4.12158-19,9s8.70117,9,19,9,19-4.12158,19-9S40.29883,12,30,12ZM8.97595,46.75134c.01239-.23.02405-.46026.02405-.69128V41.5802L3.42188,38.39258,2.2373,40.76172ZM49,46.06006V25.73444a13.29655,13.29655,0,0,1-3,2.45269V35a1,1,0,0,1-2,0V29.24829a33.24256,33.24256,0,0,1-13,2.72608V47a5.00588,5.00588,0,0,0,5,5,1,1,0,0,1,0,2,7.00787,7.00787,0,0,1-7-7V31.97437a33.24256,33.24256,0,0,1-13-2.72608V36a1,1,0,0,1-2,0V28.18713a13.29655,13.29655,0,0,1-3-2.45269V46.06006a14.95513,14.95513,0,0,1-2.21729,7.82275L3.78906,62h3.061a15.00586,15.00586,0,0,0,7.28369-1.8833L19,57.4118V53a1,1,0,0,1,2,0v4.44611l5.83008,3.64618A5.92355,5.92355,0,0,0,29,61.89178V58a1,1,0,0,1,2,0v3.89154a5.92771,5.92771,0,0,0,2.17236-.80121l6.29737-3.938a.99728.99728,0,0,1,1.01611-.02636L41,57.41174V42a5.00588,5.00588,0,0,0-5-5,1,1,0,0,1,0-2,7.00787,7.00787,0,0,1,7,7V58.52338l2.86572,1.59283A15.0042,15.0042,0,0,0,53.1499,62h3.061l-4.99268-8.11621A14.95312,14.95312,0,0,1,49,46.06006Zm2-3.61774,9.83691-10.65668L59.4751,28.38037,51,32.61816Z"></path>
</svg>
